<?xml version="1.0" encoding="UTF-8" standalone="no"?>
<!DOCTYPE svg PUBLIC "-//W3C//DTD SVG 1.1//EN"
 "http://www.w3.org/Graphics/SVG/1.1/DTD/svg11.dtd">
<!-- Generated by graphviz version 2.38.0 (20140413.2041)
 -->
<!-- Title: GrafoFuncionmain Pages: 1 -->
<svg width="187pt" height="1772pt"
 viewBox="0.00 0.00 187.38 1772.00" xmlns="http://www.w3.org/2000/svg" xmlns:xlink="http://www.w3.org/1999/xlink">
<g id="graph0" class="graph" transform="scale(1 1) rotate(0) translate(4 1768)">
<title>GrafoFuncionmain</title>
<polygon fill="white" stroke="none" points="-4,4 -4,-1768 183.384,-1768 183.384,4 -4,4"/>
<!-- IDInicio -->
<g id="node1" class="node"><title>IDInicio</title>
<ellipse fill="#8b5a00" stroke="black" cx="89.692" cy="-1746" rx="31.3957" ry="18"/>
<text text-anchor="middle" x="89.692" y="-1742.3" font-family="Times New Roman,serif" font-size="14.00">Inicio</text>
</g>
<!-- IDmain1 -->
<g id="node3" class="node"><title>IDmain1</title>
<ellipse fill="#8b5a00" stroke="black" cx="89.692" cy="-1674" rx="32.4942" ry="18"/>
<text text-anchor="middle" x="89.692" y="-1670.3" font-family="Times New Roman,serif" font-size="14.00">main1</text>
</g>
<!-- IDInicio&#45;&gt;IDmain1 -->
<g id="edge1" class="edge"><title>IDInicio&#45;&gt;IDmain1</title>
<path fill="none" stroke="black" d="M89.692,-1727.7C89.692,-1719.98 89.692,-1710.71 89.692,-1702.11"/>
<polygon fill="black" stroke="black" points="93.1921,-1702.1 89.692,-1692.1 86.1921,-1702.1 93.1921,-1702.1"/>
</g>
<!-- IDFin -->
<g id="node2" class="node"><title>IDFin</title>
<ellipse fill="#8b5a00" stroke="black" cx="89.692" cy="-18" rx="27" ry="18"/>
<text text-anchor="middle" x="89.692" y="-14.3" font-family="Times New Roman,serif" font-size="14.00">Fin</text>
</g>
<!-- IDprueba2 -->
<g id="node4" class="node"><title>IDprueba2</title>
<ellipse fill="#cd1076" stroke="black" cx="89.692" cy="-1602" rx="40.0939" ry="18"/>
<text text-anchor="middle" x="89.692" y="-1598.3" font-family="Times New Roman,serif" font-size="14.00">prueba2</text>
</g>
<!-- IDmain1&#45;&gt;IDprueba2 -->
<g id="edge2" class="edge"><title>IDmain1&#45;&gt;IDprueba2</title>
<path fill="none" stroke="black" d="M89.692,-1655.7C89.692,-1647.98 89.692,-1638.71 89.692,-1630.11"/>
<polygon fill="black" stroke="black" points="93.1921,-1630.1 89.692,-1620.1 86.1921,-1630.1 93.1921,-1630.1"/>
</g>
<!-- IDimprimir3 -->
<g id="node5" class="node"><title>IDimprimir3</title>
<ellipse fill="#cd1076" stroke="black" cx="89.692" cy="-1530" rx="45.4919" ry="18"/>
<text text-anchor="middle" x="89.692" y="-1526.3" font-family="Times New Roman,serif" font-size="14.00">imprimir3</text>
</g>
<!-- IDprueba2&#45;&gt;IDimprimir3 -->
<g id="edge3" class="edge"><title>IDprueba2&#45;&gt;IDimprimir3</title>
<path fill="none" stroke="black" d="M89.692,-1583.7C89.692,-1575.98 89.692,-1566.71 89.692,-1558.11"/>
<polygon fill="black" stroke="black" points="93.1921,-1558.1 89.692,-1548.1 86.1921,-1558.1 93.1921,-1558.1"/>
</g>
<!-- IDimprimir4 -->
<g id="node6" class="node"><title>IDimprimir4</title>
<ellipse fill="#cd1076" stroke="black" cx="89.692" cy="-1458" rx="45.4919" ry="18"/>
<text text-anchor="middle" x="89.692" y="-1454.3" font-family="Times New Roman,serif" font-size="14.00">imprimir4</text>
</g>
<!-- IDimprimir3&#45;&gt;IDimprimir4 -->
<g id="edge4" class="edge"><title>IDimprimir3&#45;&gt;IDimprimir4</title>
<path fill="none" stroke="black" d="M89.692,-1511.7C89.692,-1503.98 89.692,-1494.71 89.692,-1486.11"/>
<polygon fill="black" stroke="black" points="93.1921,-1486.1 89.692,-1476.1 86.1921,-1486.1 93.1921,-1486.1"/>
</g>
<!-- IDimprimir5 -->
<g id="node7" class="node"><title>IDimprimir5</title>
<ellipse fill="#cd1076" stroke="black" cx="89.692" cy="-1386" rx="45.4919" ry="18"/>
<text text-anchor="middle" x="89.692" y="-1382.3" font-family="Times New Roman,serif" font-size="14.00">imprimir5</text>
</g>
<!-- IDimprimir4&#45;&gt;IDimprimir5 -->
<g id="edge5" class="edge"><title>IDimprimir4&#45;&gt;IDimprimir5</title>
<path fill="none" stroke="black" d="M89.692,-1439.7C89.692,-1431.98 89.692,-1422.71 89.692,-1414.11"/>
<polygon fill="black" stroke="black" points="93.1921,-1414.1 89.692,-1404.1 86.1921,-1414.1 93.1921,-1414.1"/>
</g>
<!-- IDimprimir6 -->
<g id="node8" class="node"><title>IDimprimir6</title>
<ellipse fill="#cd1076" stroke="black" cx="89.692" cy="-1314" rx="45.4919" ry="18"/>
<text text-anchor="middle" x="89.692" y="-1310.3" font-family="Times New Roman,serif" font-size="14.00">imprimir6</text>
</g>
<!-- IDimprimir5&#45;&gt;IDimprimir6 -->
<g id="edge6" class="edge"><title>IDimprimir5&#45;&gt;IDimprimir6</title>
<path fill="none" stroke="black" d="M89.692,-1367.7C89.692,-1359.98 89.692,-1350.71 89.692,-1342.11"/>
<polygon fill="black" stroke="black" points="93.1921,-1342.1 89.692,-1332.1 86.1921,-1342.1 93.1921,-1342.1"/>
</g>
<!-- IDhazAlgo7 -->
<g id="node9" class="node"><title>IDhazAlgo7</title>
<ellipse fill="#cd1076" stroke="black" cx="89.692" cy="-1242" rx="44.6926" ry="18"/>
<text text-anchor="middle" x="89.692" y="-1238.3" font-family="Times New Roman,serif" font-size="14.00">hazAlgo7</text>
</g>
<!-- IDimprimir6&#45;&gt;IDhazAlgo7 -->
<g id="edge7" class="edge"><title>IDimprimir6&#45;&gt;IDhazAlgo7</title>
<path fill="none" stroke="black" d="M89.692,-1295.7C89.692,-1287.98 89.692,-1278.71 89.692,-1270.11"/>
<polygon fill="black" stroke="black" points="93.1921,-1270.1 89.692,-1260.1 86.1921,-1270.1 93.1921,-1270.1"/>
</g>
<!-- IDhazAlgo8 -->
<g id="node10" class="node"><title>IDhazAlgo8</title>
<ellipse fill="#cd1076" stroke="black" cx="89.692" cy="-1170" rx="44.6926" ry="18"/>
<text text-anchor="middle" x="89.692" y="-1166.3" font-family="Times New Roman,serif" font-size="14.00">hazAlgo8</text>
</g>
<!-- IDhazAlgo7&#45;&gt;IDhazAlgo8 -->
<g id="edge8" class="edge"><title>IDhazAlgo7&#45;&gt;IDhazAlgo8</title>
<path fill="none" stroke="black" d="M89.692,-1223.7C89.692,-1215.98 89.692,-1206.71 89.692,-1198.11"/>
<polygon fill="black" stroke="black" points="93.1921,-1198.1 89.692,-1188.1 86.1921,-1198.1 93.1921,-1198.1"/>
</g>
<!-- IDimprimir9 -->
<g id="node11" class="node"><title>IDimprimir9</title>
<ellipse fill="#cd1076" stroke="black" cx="89.692" cy="-1098" rx="45.4919" ry="18"/>
<text text-anchor="middle" x="89.692" y="-1094.3" font-family="Times New Roman,serif" font-size="14.00">imprimir9</text>
</g>
<!-- IDhazAlgo8&#45;&gt;IDimprimir9 -->
<g id="edge9" class="edge"><title>IDhazAlgo8&#45;&gt;IDimprimir9</title>
<path fill="none" stroke="black" d="M89.692,-1151.7C89.692,-1143.98 89.692,-1134.71 89.692,-1126.11"/>
<polygon fill="black" stroke="black" points="93.1921,-1126.1 89.692,-1116.1 86.1921,-1126.1 93.1921,-1126.1"/>
</g>
<!-- IDfopen10 -->
<g id="node12" class="node"><title>IDfopen10</title>
<ellipse fill="#cd1076" stroke="black" cx="89.692" cy="-1026" rx="40.0939" ry="18"/>
<text text-anchor="middle" x="89.692" y="-1022.3" font-family="Times New Roman,serif" font-size="14.00">fopen10</text>
</g>
<!-- IDimprimir9&#45;&gt;IDfopen10 -->
<g id="edge10" class="edge"><title>IDimprimir9&#45;&gt;IDfopen10</title>
<path fill="none" stroke="black" d="M89.692,-1079.7C89.692,-1071.98 89.692,-1062.71 89.692,-1054.11"/>
<polygon fill="black" stroke="black" points="93.1921,-1054.1 89.692,-1044.1 86.1921,-1054.1 93.1921,-1054.1"/>
</g>
<!-- IDfwrite11 -->
<g id="node13" class="node"><title>IDfwrite11</title>
<ellipse fill="#cd1076" stroke="black" cx="89.692" cy="-954" rx="40.0939" ry="18"/>
<text text-anchor="middle" x="89.692" y="-950.3" font-family="Times New Roman,serif" font-size="14.00">fwrite11</text>
</g>
<!-- IDfopen10&#45;&gt;IDfwrite11 -->
<g id="edge11" class="edge"><title>IDfopen10&#45;&gt;IDfwrite11</title>
<path fill="none" stroke="black" d="M89.692,-1007.7C89.692,-999.983 89.692,-990.712 89.692,-982.112"/>
<polygon fill="black" stroke="black" points="93.1921,-982.104 89.692,-972.104 86.1921,-982.104 93.1921,-982.104"/>
</g>
<!-- IDfclose12 -->
<g id="node14" class="node"><title>IDfclose12</title>
<ellipse fill="#cd1076" stroke="black" cx="89.692" cy="-882" rx="41.6928" ry="18"/>
<text text-anchor="middle" x="89.692" y="-878.3" font-family="Times New Roman,serif" font-size="14.00">fclose12</text>
</g>
<!-- IDfwrite11&#45;&gt;IDfclose12 -->
<g id="edge12" class="edge"><title>IDfwrite11&#45;&gt;IDfclose12</title>
<path fill="none" stroke="black" d="M89.692,-935.697C89.692,-927.983 89.692,-918.712 89.692,-910.112"/>
<polygon fill="black" stroke="black" points="93.1921,-910.104 89.692,-900.104 86.1921,-910.104 93.1921,-910.104"/>
</g>
<!-- IDfopen13 -->
<g id="node15" class="node"><title>IDfopen13</title>
<ellipse fill="#cd1076" stroke="black" cx="89.692" cy="-810" rx="40.0939" ry="18"/>
<text text-anchor="middle" x="89.692" y="-806.3" font-family="Times New Roman,serif" font-size="14.00">fopen13</text>
</g>
<!-- IDfclose12&#45;&gt;IDfopen13 -->
<g id="edge13" class="edge"><title>IDfclose12&#45;&gt;IDfopen13</title>
<path fill="none" stroke="black" d="M89.692,-863.697C89.692,-855.983 89.692,-846.712 89.692,-838.112"/>
<polygon fill="black" stroke="black" points="93.1921,-838.104 89.692,-828.104 86.1921,-838.104 93.1921,-838.104"/>
</g>
<!-- IDfreadAll14 -->
<g id="node16" class="node"><title>IDfreadAll14</title>
<ellipse fill="#cd1076" stroke="black" cx="89.692" cy="-738" rx="48.1917" ry="18"/>
<text text-anchor="middle" x="89.692" y="-734.3" font-family="Times New Roman,serif" font-size="14.00">freadAll14</text>
</g>
<!-- IDfopen13&#45;&gt;IDfreadAll14 -->
<g id="edge14" class="edge"><title>IDfopen13&#45;&gt;IDfreadAll14</title>
<path fill="none" stroke="black" d="M89.692,-791.697C89.692,-783.983 89.692,-774.712 89.692,-766.112"/>
<polygon fill="black" stroke="black" points="93.1921,-766.104 89.692,-756.104 86.1921,-766.104 93.1921,-766.104"/>
</g>
<!-- IDprint15 -->
<g id="node17" class="node"><title>IDprint15</title>
<ellipse fill="#cd1076" stroke="black" cx="89.692" cy="-666" rx="36.2938" ry="18"/>
<text text-anchor="middle" x="89.692" y="-662.3" font-family="Times New Roman,serif" font-size="14.00">print15</text>
</g>
<!-- IDfreadAll14&#45;&gt;IDprint15 -->
<g id="edge15" class="edge"><title>IDfreadAll14&#45;&gt;IDprint15</title>
<path fill="none" stroke="black" d="M89.692,-719.697C89.692,-711.983 89.692,-702.712 89.692,-694.112"/>
<polygon fill="black" stroke="black" points="93.1921,-694.104 89.692,-684.104 86.1921,-694.104 93.1921,-694.104"/>
</g>
<!-- IDfclose16 -->
<g id="node18" class="node"><title>IDfclose16</title>
<ellipse fill="#cd1076" stroke="black" cx="89.692" cy="-594" rx="41.6928" ry="18"/>
<text text-anchor="middle" x="89.692" y="-590.3" font-family="Times New Roman,serif" font-size="14.00">fclose16</text>
</g>
<!-- IDprint15&#45;&gt;IDfclose16 -->
<g id="edge16" class="edge"><title>IDprint15&#45;&gt;IDfclose16</title>
<path fill="none" stroke="black" d="M89.692,-647.697C89.692,-639.983 89.692,-630.712 89.692,-622.112"/>
<polygon fill="black" stroke="black" points="93.1921,-622.104 89.692,-612.104 86.1921,-622.104 93.1921,-622.104"/>
</g>
<!-- IDcadenaDonde17 -->
<g id="node19" class="node"><title>IDcadenaDonde17</title>
<ellipse fill="#cd1076" stroke="black" cx="89.692" cy="-522" rx="69.5877" ry="18"/>
<text text-anchor="middle" x="89.692" y="-518.3" font-family="Times New Roman,serif" font-size="14.00">cadenaDonde17</text>
</g>
<!-- IDfclose16&#45;&gt;IDcadenaDonde17 -->
<g id="edge17" class="edge"><title>IDfclose16&#45;&gt;IDcadenaDonde17</title>
<path fill="none" stroke="black" d="M89.692,-575.697C89.692,-567.983 89.692,-558.712 89.692,-550.112"/>
<polygon fill="black" stroke="black" points="93.1921,-550.104 89.692,-540.104 86.1921,-550.104 93.1921,-550.104"/>
</g>
<!-- IDcadenaSinEspacios18 -->
<g id="node20" class="node"><title>IDcadenaSinEspacios18</title>
<ellipse fill="#cd1076" stroke="black" cx="89.692" cy="-450" rx="89.8845" ry="18"/>
<text text-anchor="middle" x="89.692" y="-446.3" font-family="Times New Roman,serif" font-size="14.00">cadenaSinEspacios18</text>
</g>
<!-- IDcadenaDonde17&#45;&gt;IDcadenaSinEspacios18 -->
<g id="edge18" class="edge"><title>IDcadenaDonde17&#45;&gt;IDcadenaSinEspacios18</title>
<path fill="none" stroke="black" d="M89.692,-503.697C89.692,-495.983 89.692,-486.712 89.692,-478.112"/>
<polygon fill="black" stroke="black" points="93.1921,-478.104 89.692,-468.104 86.1921,-478.104 93.1921,-478.104"/>
</g>
<!-- IDcadenaSustituida19 -->
<g id="node21" class="node"><title>IDcadenaSustituida19</title>
<ellipse fill="#cd1076" stroke="black" cx="89.692" cy="-378" rx="80.6858" ry="18"/>
<text text-anchor="middle" x="89.692" y="-374.3" font-family="Times New Roman,serif" font-size="14.00">cadenaSustituida19</text>
</g>
<!-- IDcadenaSinEspacios18&#45;&gt;IDcadenaSustituida19 -->
<g id="edge19" class="edge"><title>IDcadenaSinEspacios18&#45;&gt;IDcadenaSustituida19</title>
<path fill="none" stroke="black" d="M89.692,-431.697C89.692,-423.983 89.692,-414.712 89.692,-406.112"/>
<polygon fill="black" stroke="black" points="93.1921,-406.104 89.692,-396.104 86.1921,-406.104 93.1921,-406.104"/>
</g>
<!-- IDcadenaIzquierda20 -->
<g id="node22" class="node"><title>IDcadenaIzquierda20</title>
<ellipse fill="#cd1076" stroke="black" cx="89.692" cy="-306" rx="78.7863" ry="18"/>
<text text-anchor="middle" x="89.692" y="-302.3" font-family="Times New Roman,serif" font-size="14.00">cadenaIzquierda20</text>
</g>
<!-- IDcadenaSustituida19&#45;&gt;IDcadenaIzquierda20 -->
<g id="edge20" class="edge"><title>IDcadenaSustituida19&#45;&gt;IDcadenaIzquierda20</title>
<path fill="none" stroke="black" d="M89.692,-359.697C89.692,-351.983 89.692,-342.712 89.692,-334.112"/>
<polygon fill="black" stroke="black" points="93.1921,-334.104 89.692,-324.104 86.1921,-334.104 93.1921,-334.104"/>
</g>
<!-- IDcadenaDerecha21 -->
<g id="node23" class="node"><title>IDcadenaDerecha21</title>
<ellipse fill="#cd1076" stroke="black" cx="89.692" cy="-234" rx="74.9875" ry="18"/>
<text text-anchor="middle" x="89.692" y="-230.3" font-family="Times New Roman,serif" font-size="14.00">cadenaDerecha21</text>
</g>
<!-- IDcadenaIzquierda20&#45;&gt;IDcadenaDerecha21 -->
<g id="edge21" class="edge"><title>IDcadenaIzquierda20&#45;&gt;IDcadenaDerecha21</title>
<path fill="none" stroke="black" d="M89.692,-287.697C89.692,-279.983 89.692,-270.712 89.692,-262.112"/>
<polygon fill="black" stroke="black" points="93.1921,-262.104 89.692,-252.104 86.1921,-262.104 93.1921,-262.104"/>
</g>
<!-- IDcadenaDentro22 -->
<g id="node24" class="node"><title>IDcadenaDentro22</title>
<ellipse fill="#cd1076" stroke="black" cx="89.692" cy="-162" rx="69.5877" ry="18"/>
<text text-anchor="middle" x="89.692" y="-158.3" font-family="Times New Roman,serif" font-size="14.00">cadenaDentro22</text>
</g>
<!-- IDcadenaDerecha21&#45;&gt;IDcadenaDentro22 -->
<g id="edge22" class="edge"><title>IDcadenaDerecha21&#45;&gt;IDcadenaDentro22</title>
<path fill="none" stroke="black" d="M89.692,-215.697C89.692,-207.983 89.692,-198.712 89.692,-190.112"/>
<polygon fill="black" stroke="black" points="93.1921,-190.104 89.692,-180.104 86.1921,-190.104 93.1921,-190.104"/>
</g>
<!-- IDcadenaLongitud23 -->
<g id="node25" class="node"><title>IDcadenaLongitud23</title>
<ellipse fill="#cd1076" stroke="black" cx="89.692" cy="-90" rx="77.1866" ry="18"/>
<text text-anchor="middle" x="89.692" y="-86.3" font-family="Times New Roman,serif" font-size="14.00">cadenaLongitud23</text>
</g>
<!-- IDcadenaDentro22&#45;&gt;IDcadenaLongitud23 -->
<g id="edge23" class="edge"><title>IDcadenaDentro22&#45;&gt;IDcadenaLongitud23</title>
<path fill="none" stroke="black" d="M89.692,-143.697C89.692,-135.983 89.692,-126.712 89.692,-118.112"/>
<polygon fill="black" stroke="black" points="93.1921,-118.104 89.692,-108.104 86.1921,-118.104 93.1921,-118.104"/>
</g>
<!-- IDcadenaLongitud23&#45;&gt;IDFin -->
<g id="edge24" class="edge"><title>IDcadenaLongitud23&#45;&gt;IDFin</title>
<path fill="none" stroke="black" d="M89.692,-71.6966C89.692,-63.9827 89.692,-54.7125 89.692,-46.1124"/>
<polygon fill="black" stroke="black" points="93.1921,-46.1043 89.692,-36.1043 86.1921,-46.1044 93.1921,-46.1043"/>
</g>
</g>
</svg>
