<?xml version="1.0" encoding="UTF-8" standalone="no"?>
<!DOCTYPE svg PUBLIC "-//W3C//DTD SVG 1.1//EN"
 "http://www.w3.org/Graphics/SVG/1.1/DTD/svg11.dtd">
<!-- Generated by graphviz version 2.38.0 (20140413.2041)
 -->
<!-- Title: GrafoFuncionmain Pages: 1 -->
<svg width="593pt" height="1196pt"
 viewBox="0.00 0.00 593.19 1196.00" xmlns="http://www.w3.org/2000/svg" xmlns:xlink="http://www.w3.org/1999/xlink">
<g id="graph0" class="graph" transform="scale(1 1) rotate(0) translate(4 1192)">
<title>GrafoFuncionmain</title>
<polygon fill="white" stroke="none" points="-4,4 -4,-1192 589.186,-1192 589.186,4 -4,4"/>
<!-- IDInicio -->
<g id="node1" class="node"><title>IDInicio</title>
<ellipse fill="#63b8ff" stroke="black" cx="97.4913" cy="-1170" rx="31.3957" ry="18"/>
<text text-anchor="middle" x="97.4913" y="-1166.3" font-family="Times New Roman,serif" font-size="14.00">Inicio</text>
</g>
<!-- IDIF1 -->
<g id="node5" class="node"><title>IDIF1</title>
<ellipse fill="#551a8b" stroke="black" cx="57.4913" cy="-1098" rx="27" ry="18"/>
<text text-anchor="middle" x="57.4913" y="-1094.3" font-family="Times New Roman,serif" font-size="14.00">IF1</text>
</g>
<!-- IDInicio&#45;&gt;IDIF1 -->
<g id="edge1" class="edge"><title>IDInicio&#45;&gt;IDIF1</title>
<path fill="none" stroke="black" d="M88.214,-1152.76C83.3169,-1144.19 77.2022,-1133.49 71.7201,-1123.9"/>
<polygon fill="black" stroke="black" points="74.7187,-1122.09 66.7184,-1115.15 68.641,-1125.57 74.7187,-1122.09"/>
</g>
<!-- IDELSE2 -->
<g id="node6" class="node"><title>IDELSE2</title>
<ellipse fill="#551a8b" stroke="black" cx="138.491" cy="-1098" rx="36.2938" ry="18"/>
<text text-anchor="middle" x="138.491" y="-1094.3" font-family="Times New Roman,serif" font-size="14.00">ELSE2</text>
</g>
<!-- IDInicio&#45;&gt;IDELSE2 -->
<g id="edge2" class="edge"><title>IDInicio&#45;&gt;IDELSE2</title>
<path fill="none" stroke="black" d="M107.001,-1152.76C111.948,-1144.32 118.109,-1133.8 123.666,-1124.31"/>
<polygon fill="black" stroke="black" points="126.715,-1126.03 128.749,-1115.63 120.675,-1122.49 126.715,-1126.03"/>
</g>
<!-- IDFin -->
<g id="node2" class="node"><title>IDFin</title>
<ellipse fill="#63b8ff" stroke="black" cx="456.491" cy="-378" rx="27" ry="18"/>
<text text-anchor="middle" x="456.491" y="-374.3" font-family="Times New Roman,serif" font-size="14.00">Fin</text>
</g>
<!-- IDmain -->
<g id="node3" class="node"><title>IDmain</title>
<ellipse fill="#63b8ff" stroke="black" cx="174.491" cy="-1170" rx="27.8951" ry="18"/>
<text text-anchor="middle" x="174.491" y="-1166.3" font-family="Times New Roman,serif" font-size="14.00">main</text>
</g>
<!-- IDprueba -->
<g id="node4" class="node"><title>IDprueba</title>
<ellipse fill="#551a8b" stroke="black" cx="256.491" cy="-1170" rx="35.9954" ry="18"/>
<text text-anchor="middle" x="256.491" y="-1166.3" font-family="Times New Roman,serif" font-size="14.00">prueba</text>
</g>
<!-- ID3 -->
<g id="node7" class="node"><title>ID3</title>
<ellipse fill="#551a8b" stroke="black" cx="97.4913" cy="-1026" rx="27" ry="18"/>
<text text-anchor="middle" x="97.4913" y="-1022.3" font-family="Times New Roman,serif" font-size="14.00">3</text>
</g>
<!-- IDIF1&#45;&gt;ID3 -->
<g id="edge3" class="edge"><title>IDIF1&#45;&gt;ID3</title>
<path fill="none" stroke="black" d="M66.7687,-1080.76C71.6658,-1072.19 77.7805,-1061.49 83.2626,-1051.9"/>
<polygon fill="black" stroke="black" points="86.3417,-1053.57 88.2643,-1043.15 80.264,-1050.09 86.3417,-1053.57"/>
</g>
<!-- IDELSE2&#45;&gt;ID3 -->
<g id="edge4" class="edge"><title>IDELSE2&#45;&gt;ID3</title>
<path fill="none" stroke="black" d="M128.775,-1080.41C123.75,-1071.83 117.517,-1061.19 111.941,-1051.67"/>
<polygon fill="black" stroke="black" points="114.93,-1049.85 106.856,-1042.99 108.89,-1053.39 114.93,-1049.85"/>
</g>
<!-- IDIF4 -->
<g id="node8" class="node"><title>IDIF4</title>
<ellipse fill="#551a8b" stroke="black" cx="57.4913" cy="-954" rx="27" ry="18"/>
<text text-anchor="middle" x="57.4913" y="-950.3" font-family="Times New Roman,serif" font-size="14.00">IF4</text>
</g>
<!-- ID3&#45;&gt;IDIF4 -->
<g id="edge5" class="edge"><title>ID3&#45;&gt;IDIF4</title>
<path fill="none" stroke="black" d="M88.214,-1008.76C83.3169,-1000.19 77.2022,-989.494 71.7201,-979.9"/>
<polygon fill="black" stroke="black" points="74.7187,-978.093 66.7184,-971.147 68.641,-981.566 74.7187,-978.093"/>
</g>
<!-- IDELSE5 -->
<g id="node9" class="node"><title>IDELSE5</title>
<ellipse fill="#551a8b" stroke="black" cx="138.491" cy="-954" rx="36.2938" ry="18"/>
<text text-anchor="middle" x="138.491" y="-950.3" font-family="Times New Roman,serif" font-size="14.00">ELSE5</text>
</g>
<!-- ID3&#45;&gt;IDELSE5 -->
<g id="edge6" class="edge"><title>ID3&#45;&gt;IDELSE5</title>
<path fill="none" stroke="black" d="M107.001,-1008.76C111.948,-1000.32 118.109,-989.799 123.666,-980.312"/>
<polygon fill="black" stroke="black" points="126.715,-982.031 128.749,-971.633 120.675,-978.493 126.715,-982.031"/>
</g>
<!-- ID6 -->
<g id="node10" class="node"><title>ID6</title>
<ellipse fill="#551a8b" stroke="black" cx="97.4913" cy="-882" rx="27" ry="18"/>
<text text-anchor="middle" x="97.4913" y="-878.3" font-family="Times New Roman,serif" font-size="14.00">6</text>
</g>
<!-- IDIF4&#45;&gt;ID6 -->
<g id="edge7" class="edge"><title>IDIF4&#45;&gt;ID6</title>
<path fill="none" stroke="black" d="M66.7687,-936.765C71.6658,-928.195 77.7805,-917.494 83.2626,-907.9"/>
<polygon fill="black" stroke="black" points="86.3417,-909.566 88.2643,-899.147 80.264,-906.093 86.3417,-909.566"/>
</g>
<!-- IDELSE5&#45;&gt;ID6 -->
<g id="edge8" class="edge"><title>IDELSE5&#45;&gt;ID6</title>
<path fill="none" stroke="black" d="M128.775,-936.411C123.75,-927.832 117.517,-917.191 111.941,-907.67"/>
<polygon fill="black" stroke="black" points="114.93,-905.848 106.856,-898.988 108.89,-909.386 114.93,-905.848"/>
</g>
<!-- IDFOROWHILE7 -->
<g id="node11" class="node"><title>IDFOROWHILE7</title>
<ellipse fill="#551a8b" stroke="black" cx="97.4913" cy="-810" rx="69.5877" ry="18"/>
<text text-anchor="middle" x="97.4913" y="-806.3" font-family="Times New Roman,serif" font-size="14.00">FOROWHILE7</text>
</g>
<!-- ID6&#45;&gt;IDFOROWHILE7 -->
<g id="edge9" class="edge"><title>ID6&#45;&gt;IDFOROWHILE7</title>
<path fill="none" stroke="black" d="M97.4913,-863.697C97.4913,-855.983 97.4913,-846.712 97.4913,-838.112"/>
<polygon fill="black" stroke="black" points="100.991,-838.104 97.4913,-828.104 93.9914,-838.104 100.991,-838.104"/>
</g>
<!-- IDCONTENIDOBUCLE8 -->
<g id="node12" class="node"><title>IDCONTENIDOBUCLE8</title>
<ellipse fill="#551a8b" stroke="black" cx="97.4913" cy="-738" rx="97.4827" ry="18"/>
<text text-anchor="middle" x="97.4913" y="-734.3" font-family="Times New Roman,serif" font-size="14.00">CONTENIDOBUCLE8</text>
</g>
<!-- IDFOROWHILE7&#45;&gt;IDCONTENIDOBUCLE8 -->
<g id="edge10" class="edge"><title>IDFOROWHILE7&#45;&gt;IDCONTENIDOBUCLE8</title>
<path fill="none" stroke="black" d="M91.6131,-792.055C90.795,-784.346 90.5527,-775.027 90.8862,-766.364"/>
<polygon fill="black" stroke="black" points="94.3856,-766.491 91.5785,-756.275 87.402,-766.012 94.3856,-766.491"/>
</g>
<!-- IDFINBUCLE9 -->
<g id="node13" class="node"><title>IDFINBUCLE9</title>
<ellipse fill="#551a8b" stroke="black" cx="272.491" cy="-738" rx="59.2899" ry="18"/>
<text text-anchor="middle" x="272.491" y="-734.3" font-family="Times New Roman,serif" font-size="14.00">FINBUCLE9</text>
</g>
<!-- IDFOROWHILE7&#45;&gt;IDFINBUCLE9 -->
<g id="edge11" class="edge"><title>IDFOROWHILE7&#45;&gt;IDFINBUCLE9</title>
<path fill="none" stroke="black" d="M133.751,-794.496C161.275,-783.486 199.243,-768.3 228.502,-756.596"/>
<polygon fill="black" stroke="black" points="230.079,-759.735 238.064,-752.771 227.479,-753.235 230.079,-759.735"/>
</g>
<!-- IDCONTENIDOBUCLE8&#45;&gt;IDFOROWHILE7 -->
<g id="edge12" class="edge"><title>IDCONTENIDOBUCLE8&#45;&gt;IDFOROWHILE7</title>
<path fill="none" stroke="black" d="M103.404,-756.275C104.206,-764.03 104.432,-773.362 104.082,-782.005"/>
<polygon fill="black" stroke="black" points="100.585,-781.832 103.37,-792.055 107.568,-782.327 100.585,-781.832"/>
</g>
<!-- IDFOROWHILE10 -->
<g id="node14" class="node"><title>IDFOROWHILE10</title>
<ellipse fill="#551a8b" stroke="black" cx="272.491" cy="-666" rx="73.387" ry="18"/>
<text text-anchor="middle" x="272.491" y="-662.3" font-family="Times New Roman,serif" font-size="14.00">FOROWHILE10</text>
</g>
<!-- IDFINBUCLE9&#45;&gt;IDFOROWHILE10 -->
<g id="edge13" class="edge"><title>IDFINBUCLE9&#45;&gt;IDFOROWHILE10</title>
<path fill="none" stroke="black" d="M272.491,-719.697C272.491,-711.983 272.491,-702.712 272.491,-694.112"/>
<polygon fill="black" stroke="black" points="275.991,-694.104 272.491,-684.104 268.991,-694.104 275.991,-694.104"/>
</g>
<!-- IDCONTENIDOBUCLE11 -->
<g id="node15" class="node"><title>IDCONTENIDOBUCLE11</title>
<ellipse fill="#551a8b" stroke="black" cx="272.491" cy="-594" rx="102.082" ry="18"/>
<text text-anchor="middle" x="272.491" y="-590.3" font-family="Times New Roman,serif" font-size="14.00">CONTENIDOBUCLE11</text>
</g>
<!-- IDFOROWHILE10&#45;&gt;IDCONTENIDOBUCLE11 -->
<g id="edge14" class="edge"><title>IDFOROWHILE10&#45;&gt;IDCONTENIDOBUCLE11</title>
<path fill="none" stroke="black" d="M266.613,-648.055C265.795,-640.346 265.553,-631.027 265.886,-622.364"/>
<polygon fill="black" stroke="black" points="269.386,-622.491 266.579,-612.275 262.402,-622.012 269.386,-622.491"/>
</g>
<!-- IDFINBUCLE12 -->
<g id="node16" class="node"><title>IDFINBUCLE12</title>
<ellipse fill="#551a8b" stroke="black" cx="456.491" cy="-594" rx="63.8893" ry="18"/>
<text text-anchor="middle" x="456.491" y="-590.3" font-family="Times New Roman,serif" font-size="14.00">FINBUCLE12</text>
</g>
<!-- IDFOROWHILE10&#45;&gt;IDFINBUCLE12 -->
<g id="edge15" class="edge"><title>IDFOROWHILE10&#45;&gt;IDFINBUCLE12</title>
<path fill="none" stroke="black" d="M310.616,-650.496C339.586,-639.475 379.561,-624.267 410.338,-612.558"/>
<polygon fill="black" stroke="black" points="411.881,-615.716 419.983,-608.889 409.391,-609.174 411.881,-615.716"/>
</g>
<!-- IDCONTENIDOBUCLE11&#45;&gt;IDFOROWHILE10 -->
<g id="edge16" class="edge"><title>IDCONTENIDOBUCLE11&#45;&gt;IDFOROWHILE10</title>
<path fill="none" stroke="black" d="M278.404,-612.275C279.206,-620.03 279.432,-629.362 279.082,-638.005"/>
<polygon fill="black" stroke="black" points="275.585,-637.832 278.37,-648.055 282.568,-638.327 275.585,-637.832"/>
</g>
<!-- IDFOROWHILE13 -->
<g id="node17" class="node"><title>IDFOROWHILE13</title>
<ellipse fill="#551a8b" stroke="black" cx="456.491" cy="-522" rx="73.387" ry="18"/>
<text text-anchor="middle" x="456.491" y="-518.3" font-family="Times New Roman,serif" font-size="14.00">FOROWHILE13</text>
</g>
<!-- IDFINBUCLE12&#45;&gt;IDFOROWHILE13 -->
<g id="edge17" class="edge"><title>IDFINBUCLE12&#45;&gt;IDFOROWHILE13</title>
<path fill="none" stroke="black" d="M456.491,-575.697C456.491,-567.983 456.491,-558.712 456.491,-550.112"/>
<polygon fill="black" stroke="black" points="459.991,-550.104 456.491,-540.104 452.991,-550.104 459.991,-550.104"/>
</g>
<!-- IDCONTENIDOBUCLE14 -->
<g id="node18" class="node"><title>IDCONTENIDOBUCLE14</title>
<ellipse fill="#551a8b" stroke="black" cx="272.491" cy="-450" rx="102.082" ry="18"/>
<text text-anchor="middle" x="272.491" y="-446.3" font-family="Times New Roman,serif" font-size="14.00">CONTENIDOBUCLE14</text>
</g>
<!-- IDFOROWHILE13&#45;&gt;IDCONTENIDOBUCLE14 -->
<g id="edge18" class="edge"><title>IDFOROWHILE13&#45;&gt;IDCONTENIDOBUCLE14</title>
<path fill="none" stroke="black" d="M418.366,-506.496C390.726,-495.981 353.069,-481.654 322.939,-470.192"/>
<polygon fill="black" stroke="black" points="324.034,-466.864 313.443,-466.579 321.545,-473.406 324.034,-466.864"/>
</g>
<!-- IDFINBUCLE24 -->
<g id="node28" class="node"><title>IDFINBUCLE24</title>
<ellipse fill="#551a8b" stroke="black" cx="456.491" cy="-450" rx="63.8893" ry="18"/>
<text text-anchor="middle" x="456.491" y="-446.3" font-family="Times New Roman,serif" font-size="14.00">FINBUCLE24</text>
</g>
<!-- IDFOROWHILE13&#45;&gt;IDFINBUCLE24 -->
<g id="edge19" class="edge"><title>IDFOROWHILE13&#45;&gt;IDFINBUCLE24</title>
<path fill="none" stroke="black" d="M456.491,-503.697C456.491,-495.983 456.491,-486.712 456.491,-478.112"/>
<polygon fill="black" stroke="black" points="459.991,-478.104 456.491,-468.104 452.991,-478.104 459.991,-478.104"/>
</g>
<!-- IDFOROWHILE15 -->
<g id="node19" class="node"><title>IDFOROWHILE15</title>
<ellipse fill="#551a8b" stroke="black" cx="295.491" cy="-378" rx="73.387" ry="18"/>
<text text-anchor="middle" x="295.491" y="-374.3" font-family="Times New Roman,serif" font-size="14.00">FOROWHILE15</text>
</g>
<!-- IDCONTENIDOBUCLE14&#45;&gt;IDFOROWHILE15 -->
<g id="edge20" class="edge"><title>IDCONTENIDOBUCLE14&#45;&gt;IDFOROWHILE15</title>
<path fill="none" stroke="black" d="M278.177,-431.697C280.739,-423.898 283.824,-414.509 286.676,-405.829"/>
<polygon fill="black" stroke="black" points="290.075,-406.697 289.871,-396.104 283.425,-404.512 290.075,-406.697"/>
</g>
<!-- IDCONTENIDOBUCLE16 -->
<g id="node20" class="node"><title>IDCONTENIDOBUCLE16</title>
<ellipse fill="#551a8b" stroke="black" cx="276.491" cy="-306" rx="102.082" ry="18"/>
<text text-anchor="middle" x="276.491" y="-302.3" font-family="Times New Roman,serif" font-size="14.00">CONTENIDOBUCLE16</text>
</g>
<!-- IDFOROWHILE15&#45;&gt;IDCONTENIDOBUCLE16 -->
<g id="edge21" class="edge"><title>IDFOROWHILE15&#45;&gt;IDCONTENIDOBUCLE16</title>
<path fill="none" stroke="black" d="M290.795,-359.697C288.678,-351.898 286.129,-342.509 283.774,-333.829"/>
<polygon fill="black" stroke="black" points="287.131,-332.838 281.134,-324.104 280.376,-334.672 287.131,-332.838"/>
</g>
<!-- IDFINBUCLE23 -->
<g id="node27" class="node"><title>IDFINBUCLE23</title>
<ellipse fill="#551a8b" stroke="black" cx="521.491" cy="-306" rx="63.8893" ry="18"/>
<text text-anchor="middle" x="521.491" y="-302.3" font-family="Times New Roman,serif" font-size="14.00">FINBUCLE23</text>
</g>
<!-- IDFOROWHILE15&#45;&gt;IDFINBUCLE23 -->
<g id="edge22" class="edge"><title>IDFOROWHILE15&#45;&gt;IDFINBUCLE23</title>
<path fill="none" stroke="black" d="M339.066,-363.503C376.669,-351.857 431.017,-335.023 470.607,-322.761"/>
<polygon fill="black" stroke="black" points="471.818,-326.05 480.335,-319.748 469.747,-319.363 471.818,-326.05"/>
</g>
<!-- IDFOROWHILE17 -->
<g id="node21" class="node"><title>IDFOROWHILE17</title>
<ellipse fill="#551a8b" stroke="black" cx="290.491" cy="-234" rx="73.387" ry="18"/>
<text text-anchor="middle" x="290.491" y="-230.3" font-family="Times New Roman,serif" font-size="14.00">FOROWHILE17</text>
</g>
<!-- IDCONTENIDOBUCLE16&#45;&gt;IDFOROWHILE17 -->
<g id="edge23" class="edge"><title>IDCONTENIDOBUCLE16&#45;&gt;IDFOROWHILE17</title>
<path fill="none" stroke="black" d="M279.952,-287.697C281.495,-279.983 283.349,-270.712 285.069,-262.112"/>
<polygon fill="black" stroke="black" points="288.541,-262.597 287.07,-252.104 281.677,-261.224 288.541,-262.597"/>
</g>
<!-- IDCONTENIDOBUCLE18 -->
<g id="node22" class="node"><title>IDCONTENIDOBUCLE18</title>
<ellipse fill="#551a8b" stroke="black" cx="139.491" cy="-162" rx="102.082" ry="18"/>
<text text-anchor="middle" x="139.491" y="-158.3" font-family="Times New Roman,serif" font-size="14.00">CONTENIDOBUCLE18</text>
</g>
<!-- IDFOROWHILE17&#45;&gt;IDCONTENIDOBUCLE18 -->
<g id="edge24" class="edge"><title>IDFOROWHILE17&#45;&gt;IDCONTENIDOBUCLE18</title>
<path fill="none" stroke="black" d="M257.727,-217.811C235.903,-207.694 206.976,-194.284 183.197,-183.261"/>
<polygon fill="black" stroke="black" points="184.573,-180.041 174.029,-179.011 181.629,-186.392 184.573,-180.041"/>
</g>
<!-- IDFINBUCLE22 -->
<g id="node26" class="node"><title>IDFINBUCLE22</title>
<ellipse fill="#551a8b" stroke="black" cx="394.491" cy="-162" rx="63.8893" ry="18"/>
<text text-anchor="middle" x="394.491" y="-158.3" font-family="Times New Roman,serif" font-size="14.00">FINBUCLE22</text>
</g>
<!-- IDFOROWHILE17&#45;&gt;IDFINBUCLE22 -->
<g id="edge25" class="edge"><title>IDFOROWHILE17&#45;&gt;IDFINBUCLE22</title>
<path fill="none" stroke="black" d="M314.351,-216.941C328.721,-207.268 347.194,-194.834 362.782,-184.343"/>
<polygon fill="black" stroke="black" points="364.76,-187.231 371.101,-178.743 360.851,-181.424 364.76,-187.231"/>
</g>
<!-- IDFOROWHILE19 -->
<g id="node23" class="node"><title>IDFOROWHILE19</title>
<ellipse fill="#551a8b" stroke="black" cx="126.491" cy="-90" rx="73.387" ry="18"/>
<text text-anchor="middle" x="126.491" y="-86.3" font-family="Times New Roman,serif" font-size="14.00">FOROWHILE19</text>
</g>
<!-- IDCONTENIDOBUCLE18&#45;&gt;IDFOROWHILE19 -->
<g id="edge26" class="edge"><title>IDCONTENIDOBUCLE18&#45;&gt;IDFOROWHILE19</title>
<path fill="none" stroke="black" d="M136.278,-143.697C134.845,-135.983 133.124,-126.712 131.527,-118.112"/>
<polygon fill="black" stroke="black" points="134.935,-117.297 129.668,-108.104 128.053,-118.575 134.935,-117.297"/>
</g>
<!-- IDCONTENIDOBUCLE20 -->
<g id="node24" class="node"><title>IDCONTENIDOBUCLE20</title>
<ellipse fill="#551a8b" stroke="black" cx="119.491" cy="-18" rx="102.082" ry="18"/>
<text text-anchor="middle" x="119.491" y="-14.3" font-family="Times New Roman,serif" font-size="14.00">CONTENIDOBUCLE20</text>
</g>
<!-- IDFOROWHILE19&#45;&gt;IDCONTENIDOBUCLE20 -->
<g id="edge27" class="edge"><title>IDFOROWHILE19&#45;&gt;IDCONTENIDOBUCLE20</title>
<path fill="none" stroke="black" d="M118.919,-72.055C117.33,-64.3456 116.155,-55.0269 115.623,-46.3642"/>
<polygon fill="black" stroke="black" points="119.118,-46.1606 115.306,-36.2753 112.121,-46.3802 119.118,-46.1606"/>
</g>
<!-- IDFINBUCLE21 -->
<g id="node25" class="node"><title>IDFINBUCLE21</title>
<ellipse fill="#551a8b" stroke="black" cx="303.491" cy="-18" rx="63.8893" ry="18"/>
<text text-anchor="middle" x="303.491" y="-14.3" font-family="Times New Roman,serif" font-size="14.00">FINBUCLE21</text>
</g>
<!-- IDFOROWHILE19&#45;&gt;IDFINBUCLE21 -->
<g id="edge28" class="edge"><title>IDFOROWHILE19&#45;&gt;IDFINBUCLE21</title>
<path fill="none" stroke="black" d="M163.596,-74.3257C191.192,-63.4121 228.991,-48.4634 258.342,-36.8558"/>
<polygon fill="black" stroke="black" points="259.933,-39.9904 267.945,-33.058 257.358,-33.481 259.933,-39.9904"/>
</g>
<!-- IDCONTENIDOBUCLE20&#45;&gt;IDFOROWHILE19 -->
<g id="edge29" class="edge"><title>IDCONTENIDOBUCLE20&#45;&gt;IDFOROWHILE19</title>
<path fill="none" stroke="black" d="M127.097,-36.1043C128.671,-43.7913 129.834,-53.0537 130.362,-61.6651"/>
<polygon fill="black" stroke="black" points="126.865,-61.8114 130.677,-71.6966 133.861,-61.5917 126.865,-61.8114"/>
</g>
<!-- IDFINBUCLE21&#45;&gt;IDFOROWHILE17 -->
<g id="edge30" class="edge"><title>IDFINBUCLE21&#45;&gt;IDFOROWHILE17</title>
<path fill="none" stroke="black" d="M302.445,-36.2325C300.191,-73.3243 294.866,-160.981 292.149,-205.712"/>
<polygon fill="black" stroke="black" points="288.646,-205.655 291.533,-215.849 295.633,-206.08 288.646,-205.655"/>
</g>
<!-- IDFINBUCLE22&#45;&gt;IDFOROWHILE15 -->
<g id="edge31" class="edge"><title>IDFINBUCLE22&#45;&gt;IDFOROWHILE15</title>
<path fill="none" stroke="black" d="M398.732,-180.034C405.474,-211.185 415.231,-278.326 387.491,-324 378.213,-339.277 362.763,-350.585 347.149,-358.739"/>
<polygon fill="black" stroke="black" points="345.455,-355.671 337.982,-363.182 348.508,-361.97 345.455,-355.671"/>
</g>
<!-- IDFINBUCLE23&#45;&gt;IDFOROWHILE13 -->
<g id="edge32" class="edge"><title>IDFINBUCLE23&#45;&gt;IDFOROWHILE13</title>
<path fill="none" stroke="black" d="M527.628,-324.139C537.536,-354.887 553.639,-420.626 529.491,-468 522.672,-481.378 510.722,-492.169 498.44,-500.435"/>
<polygon fill="black" stroke="black" points="496.562,-497.481 489.943,-505.754 500.277,-503.414 496.562,-497.481"/>
</g>
<!-- IDFINBUCLE24&#45;&gt;IDFin -->
<g id="edge33" class="edge"><title>IDFINBUCLE24&#45;&gt;IDFin</title>
<path fill="none" stroke="black" d="M456.491,-431.697C456.491,-423.983 456.491,-414.712 456.491,-406.112"/>
<polygon fill="black" stroke="black" points="459.991,-406.104 456.491,-396.104 452.991,-406.104 459.991,-406.104"/>
</g>
</g>
</svg>
